#!OML:ASF H:\Terrain\Patient Classification 1\Animal2\Wednesday\Animal2.ASF
:FULLY-SPECIFIED
:DEGREES
4106
root 19.7887 17.8597 -15.9385 186.13 -193.455 -179.514
lowerback 1.18956 -2.10815 3.74582
upperback 1.58058 -2.80555 3.77924
thorax 0.967692 -1.38051 1.79322
lowerneck -5.25673 0.992568 13.4594
upperneck -6.3426 0.903165 3.25986
head -1.09242 0.138546 -1.22336
rclavicle -2.28602e-014 7.63333e-014
rhumerus -32.9804 -20.0523 -40.311
rradius 57.3259
rwrist -37.5643
rhand -18.7085 -0.76826
rfingers 7.12502
rthumb 7.58649 -30.6122
lclavicle -2.28602e-014 7.63333e-014
lhumerus -38.548 14.4879 32.2292
lradius 58.62
lwrist 68.3764
lhand -14.6852 22.9212
lfingers 7.12502
lthumb 11.4684 52.5875
rfemur -13.6531 -7.45583 21.0301
rtibia 26.8883
rfoot -21.637 -0.533024
rtoes 33.5452
lfemur -13.8834 -2.68952 -18.395
ltibia 23.9217
lfoot -16.3259 1.02689
ltoes -32.929
4107
root 19.7947 17.8585 -15.9352 186.232 -193.464 -179.294
lowerback 1.11795 -2.1536 3.56326
upperback 1.35234 -2.86018 3.76886
thorax 0.781377 -1.41271 1.88642
lowerneck -5.32234 0.85023 13.1721
upperneck -6.82007 0.754806 3.37502
head -1.24306 0.042189 -1.13842
rclavicle -3.20043e-014 1.43125e-014
rhumerus -32.5941 -20.6271 -40.1235
rradius 56.6172
rwrist -36.9383
rhand -18.6882 -0.446709
rfingers 7.12502
rthumb 7.60612 -30.2899
lclavicle -3.20043e-014 1.43125e-014
lhumerus -38.7117 14.838 31.824
lradius 58.7189
lwrist 68.4477
lhand -15.0179 22.9545
lfingers 7.12502
lthumb 11.1475 52.6384
rfemur -13.7093 -7.49369 20.7711
rtibia 26.9175
rfoot -21.6792 -0.484548
rtoes 33.7198
lfemur -13.9184 -2.67186 -18.6652
ltibia 23.907
lfoot -16.2711 1.07446
ltoes -33.1337
4108
root 19.8038 17.8591 -15.9326 186.27 -193.505 -179.308
lowerback 1.02388 -2.18695 3.65439
upperback 1.15747 -2.89989 3.79717
thorax 0.631097 -1.43411 1.86574
lowerneck -5.61458 0.664599 13.075
upperneck -7.04542 0.476009 3.25523
head -1.2798 -0.103214 -1.16248
rclavicle 2.68359e-014 1.43125e-014
rhumerus -32.8377 -19.5139 -40.156
rradius 57.3798
rwrist -37.9111
rhand -24.9621 -12.7613
rfingers 7.12502
rthumb 1.54817 -42.7355
lclavicle 2.68359e-014 1.43125e-014
lhumerus -38.8024 15.0496 31.4503
lradius 58.8444
lwrist 68.6786
lhand -15.4657 23.291
lfingers 7.12502
lthumb 10.7156 52.9977
rfemur -13.766 -7.7187 20.7557
rtibia 26.9561
rfoot -21.6734 -0.246713
rtoes 33.8208
lfemur -13.914 -2.85788 -18.6681
ltibia 23.8685
lfoot -16.2536 0.971892
ltoes -32.1338
4109
root 19.8096 17.8598 -15.929 186.214 -193.576 -179.375
lowerback 1.01856 -2.23335 3.80817
upperback 0.979884 -2.95132 3.78379
thorax 0.443486 -1.46124 1.77102
lowerneck -5.70819 0.470826 12.9367
upperneck -7.44946 0.239387 3.27214
head -1.40643 -0.240442 -1.13537
rclavicle 2.78299e-014 0
rhumerus -33.0574 -18.6794 -40.2246
rradius 57.9494
rwrist -38.6379
rhand -23.1123 -2.07261
rfingers 7.12502
rthumb 3.33465 -32.0263
lclavicle 2.78299e-014 0
lhumerus -38.7464 15.2724 30.9941
lradius 58.853
lwrist 69.0261
lhand -16.0732 23.6368
lfingers 7.12502
lthumb 10.1296 53.3729
rfemur -13.704 -7.81743 20.813
rtibia 26.9798
rfoot -21.6426 -0.335581
rtoes 33.5859
lfemur -13.8359 -2.97178 -18.5986
ltibia 23.8352
lfoot -16.3184 0.932595
ltoes -31.963
4110
root 19.8111 17.8597 -15.9235 186.196 -193.571 -179.365
lowerback 0.93771 -2.25469 3.7957
upperback 0.822846 -2.97694 3.7898
thorax 0.328398 -1.47616 1.78476
lowerneck -5.6899 0.32884 12.5857
upperneck -7.88553 0.112552 3.52677
head -1.555 -0.322736 -0.993177
rclavicle -5.58585e-014 2.8625e-014
rhumerus -33.1095 -18.3726 -40.1772
rradius 58.1807
rwrist -39.0355
rhand -23.2902 -1.8763
rfingers 7.12502
rthumb 3.16281 -31.8326
lclavicle -5.58585e-014 2.8625e-014
lhumerus -38.6421 15.4465 30.6262
lradius 58.6976
lwrist 69.3647
lhand -16.1539 23.9735
lfingers 7.12502
lthumb 10.0517 53.7135
rfemur -13.6428 -7.67101 20.8073
rtibia 26.9542
rfoot -21.6766 -0.598718
rtoes 33.1494
lfemur -13.8179 -2.88091 -18.6125
ltibia 23.8525
lfoot -16.3975 1.07727
ltoes -33.1533
4111
root 19.8131 17.8591 -15.9196 186.198 -193.523 -179.362
lowerback 0.769963 -2.28353 3.72743
upperback 0.718981 -3.02156 3.86276
thorax 0.323313 -1.49966 1.89331
lowerneck -5.588 0.24651 12.2943
upperneck -8.40826 0.0743865 3.64698
head -1.74293 -0.366688 -0.905468
rclavicle 2.14687e-014 6.36111e-015
rhumerus -33.5295 -19.776 -39.9209
rradius 59.2816
rwrist -38.0841
rhand -22.752 -2.17837
rfingers 7.12502
rthumb 3.68256 -32.1263
lclavicle 2.14687e-014 6.36111e-015
lhumerus -38.658 15.7789 30.3126
lradius 58.4904
lwrist 69.3888
lhand -16.0258 24.2835
lfingers 7.12502
lthumb 10.1752 54.0174
rfemur -13.6171 -7.46598 20.7956
rtibia 26.9234
rfoot -21.7447 -0.675943
rtoes 33.2507
lfemur -13.8296 -2.78245 -18.6218
ltibia 23.8818
lfoot -16.4159 1.05431
ltoes -33.4442
4112
root 19.8198 17.8578 -15.919 186.166 -193.506 -179.388
lowerback 0.702868 -2.3459 3.77087
upperback 0.597605 -3.10227 3.89084
thorax 0.235954 -1.54127 1.89882
lowerneck -5.3767 0.177744 12.5195
upperneck -9.05896 0.0313478 3.28857
head -2.00079 -0.429687 -1.06345
rclavicle 6.55989e-015 -4.6118e-014
rhumerus -33.4662 -20.3319 -39.8857
rradius 59.5476
rwrist -37.7792
rhand -21.8671 -2.20478
rfingers 7.12502
rthumb 4.53711 -32.1362
lclavicle 6.55989e-015 -4.6118e-014
lhumerus -38.6512 16.1184 29.8643
lradius 58.1376
lwrist 69.5297
lhand -16.0878 24.4972
lfingers 7.12502
lthumb 10.1154 54.234
rfemur -13.5616 -7.50969 20.7941
rtibia 26.9095
rfoot -21.7839 -0.618854
rtoes 33.0454
lfemur -13.7916 -2.77162 -18.614
ltibia 23.8973
lfoot -16.4072 0.953607
ltoes -32.9337
4113
root 19.8259 17.8555 -15.9166 186.143 -193.444 -179.454
lowerback 0.620276 -2.36972 3.87082
upperback 0.490401 -3.13306 3.8986
thorax 0.167375 -1.55745 1.85068
lowerneck -5.35565 0.110699 12.8715
upperneck -9.58536 -0.0615094 2.81742
head -2.19201 -0.509624 -1.2813
rclavicle 8.34896e-015 1.11319e-014
rhumerus -33.2064 -20.5761 -39.9104
rradius 59.4088
rwrist -37.7993
rhand -20.5741 -2.79354
rfingers 7.12502
rthumb 5.78554 -32.6946
lclavicle 8.34896e-015 1.11319e-014
lhumerus -38.4567 16.1801 29.4989
lradius 57.7097
lwrist 70.0835
lhand -16.5668 24.5398
lfingers 7.12502
lthumb 9.65335 54.2986
rfemur -13.5412 -7.59926 20.8381
rtibia 26.9103
rfoot -21.83 -0.455195
rtoes 32.9872
lfemur -13.7466 -2.79443 -18.568
ltibia 23.8924
lfoot -16.386 1.11906
ltoes -33.2233
4114
root 19.8277 17.8533 -15.9112 186.126 -193.332 -179.468
lowerback 0.452002 -2.36904 3.82403
upperback 0.440328 -3.14116 3.96226
thorax 0.21639 -1.56163 1.93575
lowerneck -5.43619 0.0693633 12.9021
upperneck -10.1321 -0.117604 2.49361
head -2.36788 -0.562602 -1.39557
rclavicle 6.65929e-014 -4.13472e-014
rhumerus -32.8689 -20.863 -39.8582
rradius 59.3026
rwrist -37.9618
rhand -20.0815 -3.66241
rfingers 7.12502
rthumb 6.26117 -33.5499
lclavicle 6.65929e-014 -4.13472e-014
lhumerus -38.2658 16.2644 29.334
lradius 57.3452
lwrist 70.4861
lhand -17.2955 24.6872
lfingers 7.12502
lthumb 8.95021 54.4773
rfemur -13.544 -7.39352 20.8387
rtibia 26.9473
rfoot -21.8765 -0.43539
rtoes 33.5942
lfemur -13.6674 -2.80819 -18.5712
ltibia 23.8405
lfoot -16.3198 1.32996
ltoes -33.4772
4115
root 19.8303 17.8533 -15.9081 186.108 -193.24 -179.398
lowerback 0.338235 -2.40285 3.72148
upperback 0.332857 -3.18848 4.02865
thorax 0.179373 -1.58666 2.05884
lowerneck -5.23175 0.0384118 12.7118
upperneck -10.6976 -0.102464 2.28242
head -2.59437 -0.577143 -1.43549
rclavicle 1.17283e-014 2.70347e-014
rhumerus -31.9844 -21.1051 -39.7793
rradius 58.251
rwrist -38.0041
rhand -20.5034 -3.54406
rfingers 7.12502
rthumb 5.85384 -33.4432
lclavicle 1.17283e-014 2.70347e-014
lhumerus -38.2615 16.2248 29.1925
lradius 56.9713
lwrist 70.8502
lhand -17.8537 24.9993
lfingers 7.12502
lthumb 8.41155 54.8118
rfemur -13.5274 -7.25176 20.7467
rtibia 26.9816
rfoot -21.8305 -0.446991
rtoes 33.9632
lfemur -13.5675 -2.82487 -18.6639
ltibia 23.7739
lfoot -16.3268 1.4238
ltoes -33.2486
4116
root 19.8358 17.854 -15.9047 186.156 -193.124 -179.268
lowerback 0.234975 -2.44805 3.64166
upperback 0.160976 -3.24652 4.04429
thorax 0.0664552 -1.61769 2.11941
lowerneck -4.94829 0.049928 12.519
upperneck -11.1787 -0.0235526 2.12117
head -2.80404 -0.555595 -1.45915
rclavicle -1.66979e-014 -2.70347e-014
rhumerus -29.981 -21.7789 -39.7448
rradius 55.0672
rwrist -37.3787
rhand -20.9752 -2.01653
rfingers 7.12502
rthumb 5.39828 -31.9278
lclavicle -1.66979e-014 -2.70347e-014
lhumerus -38.3714 16.0568 28.9579
lradius 56.6189
lwrist 71.2079
lhand -18.4276 25.4612
lfingers 7.12502
lthumb 7.85766 55.2951
rfemur -13.5592 -7.36153 20.5786
rtibia 26.9968
rfoot -21.8152 -0.234167
rtoes 33.6595
lfemur -13.5319 -2.66638 -18.8234
ltibia 23.7169
lfoot -16.4587 1.24433
ltoes -32.7296
